<svg id="Layer_1" data-name="Layer 1" xmlns="http://www.w3.org/2000/svg" width="30.02" height="28" viewBox="0 0 30.02 28"><defs><style>.cls-1{fill:none;}.cls-2{fill:#fff;}</style></defs><g id="Layer_2-2" data-name="Layer 2-2"><g id="invisible_box-2" data-name="invisible box-2"><rect id="Rectangle_25" data-name="Rectangle 25" class="cls-1" x="-8.98" y="-10" width="48" height="48"/></g><g id="Q3_icons-2" data-name="Q3 icons-2"><path id="Path_14" data-name="Path 14" class="cls-2" d="M12.52.6.62,12.6A1.89,1.89,0,0,0,.5,15.28l.12.12,11.9,12a2.11,2.11,0,0,0,2.7.2A1.9,1.9,0,0,0,15.73,25a2.11,2.11,0,0,0-.31-.36L6.82,16H28a2,2,0,0,0,0-4H6.82l8.6-8.6A1.91,1.91,0,0,0,15.58.72,2.17,2.17,0,0,0,15.22.4,2.09,2.09,0,0,0,12.52.6Z"/></g></g></svg>