<svg id="Layer_1" data-name="Layer 1" xmlns="http://www.w3.org/2000/svg" width="28" height="30.02" viewBox="0 0 28 30.02"><defs><style>.cls-1{fill:none;}.cls-2{fill:#fff;}</style></defs><g id="Layer_2" data-name="Layer 2"><g id="invisible_box" data-name="invisible box"><rect id="Rectangle_1" data-name="Rectangle 1" class="cls-1" x="-10" y="-9" width="48" height="48"/><rect id="Rectangle_2" data-name="Rectangle 2" class="cls-1" x="-10" y="-9" width="48" height="48"/><rect id="Rectangle_3" data-name="Rectangle 3" class="cls-1" x="-10" y="-9" width="48" height="48"/></g><g id="Q3_icons" data-name="Q3 icons"><path id="Path_1" data-name="Path 1" class="cls-2" d="M.6,17.5l12,11.9a1.91,1.91,0,0,0,2.68.12l.12-.12,12-11.9a2.11,2.11,0,0,0,.2-2.7A1.91,1.91,0,0,0,25,14.28a2.17,2.17,0,0,0-.36.32L16,23.2V2a2,2,0,0,0-4,0V23.2L3.4,14.6a1.89,1.89,0,0,0-2.68-.16,1.83,1.83,0,0,0-.32.36A2.09,2.09,0,0,0,.6,17.5Z"/></g></g></svg>