<svg id="Layer_1" data-name="Layer 1" xmlns="http://www.w3.org/2000/svg" width="30.02" height="28" viewBox="0 0 30.02 28"><defs><style>.cls-1{fill:none;}.cls-2{fill:#fff;}</style></defs><g id="Layer_2-3" data-name="Layer 2-3"><g id="invisible_box-3" data-name="invisible box-3"><rect id="Rectangle_24" data-name="Rectangle 24" class="cls-1" x="-9" y="-10" width="48" height="48"/></g><g id="Q3_icons-3" data-name="Q3 icons-3"><path id="Path_13" data-name="Path 13" class="cls-2" d="M17.5,27.4l11.9-12a1.92,1.92,0,0,0,.12-2.69l-.12-.11L17.5.6A2.09,2.09,0,0,0,14.8.4,1.91,1.91,0,0,0,14.28,3a2.17,2.17,0,0,0,.32.36L23.2,12H2a2,2,0,0,0,0,4H23.2l-8.6,8.6a1.89,1.89,0,0,0-.16,2.68,1.83,1.83,0,0,0,.36.32A2.11,2.11,0,0,0,17.5,27.4Z"/></g></g></svg>