<svg id="Layer_1" data-name="Layer 1" xmlns="http://www.w3.org/2000/svg" width="28" height="30.02" viewBox="0 0 28 30.02"><defs><style>.cls-1{fill:none;}.cls-2{fill:#fff;}</style></defs><g id="Layer_2-5" data-name="Layer 2-5"><g id="invisible_box-5" data-name="invisible box-5"><rect id="Rectangle_29" data-name="Rectangle 29" class="cls-1" x="-13.3" y="-6.1" width="48" height="48"/><rect id="Rectangle_30" data-name="Rectangle 30" class="cls-1" x="-13.3" y="-6.1" width="48" height="48"/><rect id="Rectangle_31" data-name="Rectangle 31" class="cls-1" x="-13.3" y="-6.1" width="48" height="48"/></g><g id="Q3_icons-4" data-name="Q3 icons-4"><path id="Path_16" data-name="Path 16" class="cls-2" d="M27.4,12.52,15.4.62A1.9,1.9,0,0,0,12.71.5L12.6.62.6,12.52a2.09,2.09,0,0,0-.2,2.7A1.9,1.9,0,0,0,3,15.73a2.11,2.11,0,0,0,.36-.31L12,6.82V28a2,2,0,0,0,4,0V6.82l8.6,8.6a1.91,1.91,0,0,0,2.68.16,2.17,2.17,0,0,0,.32-.36A2.11,2.11,0,0,0,27.4,12.52Z"/></g></g></svg>