<svg id="Layer_1" data-name="Layer 1" xmlns="http://www.w3.org/2000/svg" width="36" height="28" viewBox="0 0 36 28"><defs><style>.cls-1{fill:none;}.cls-2{fill:#fff;}</style></defs><g id="Layer_2-4" data-name="Layer 2-4"><g id="invisible_box-4" data-name="invisible box-4"><rect id="Rectangle_4" data-name="Rectangle 4" class="cls-1" x="-6" y="-10" width="48" height="48"/></g><g id="icons_Q2" data-name="icons Q2"><g id="Group_1" data-name="Group 1"><path id="Path_2" data-name="Path 2" class="cls-2" d="M36,2a2,2,0,0,1-2,2H2A2,2,0,0,1,0,2H0A2,2,0,0,1,2,0H34A2,2,0,0,1,36,2Z"/><path id="Path_3" data-name="Path 3" class="cls-2" d="M36,14a2,2,0,0,1-2,2H2a2,2,0,0,1-2-2H0a2,2,0,0,1,2-2H34A2,2,0,0,1,36,14Z"/><path id="Path_4" data-name="Path 4" class="cls-2" d="M36,26a2,2,0,0,1-2,2H2a2,2,0,0,1-2-2H0a2,2,0,0,1,2-2H34A2,2,0,0,1,36,26Z"/></g></g></g></svg>