<svg xmlns="http://www.w3.org/2000/svg" viewBox="0 0 667 627"><defs><style>.cls-1,.cls-3,.cls-4{fill:none;}.cls-1,.cls-3,.cls-4,.cls-5{stroke:#fff;stroke-miterlimit:10;}.cls-1{stroke-width:12px;}.cls-2,.cls-5{fill:#fff;}.cls-3,.cls-5{stroke-width:9px;}.cls-4{stroke-width:5px;}</style></defs><g id="fome"><path class="cls-1" d="M121.33,317.59C121.33,186.82,220.22,81,342.44,81"/><path class="cls-1" d="M562.79,317.59C562.79,186.82,463.89,81,341.68,81"/><path class="cls-2" d="M67.05,368.12c-.35-1.54-.59-2.92-.75-4.13s-.28-2.2-.39-2.94l3.18-.66q.48,2.39,1,4.74A31.14,31.14,0,0,0,72,371a13.79,13.79,0,0,0,9,7.89,310.75,310.75,0,0,1,25.57-29.74c.51,2.69,1.06,5.34,1.64,8q-7,7.47-13.56,15.54c-.58.78-1.33,1.67-2.24,2.67s-1.83,2.05-2.75,3.15-1.75,2-2.49,2.82c.07.22.13.44.19.66.7.11,1.52.27,2.47.5s1.91.44,2.9.68l2.84.66,2.38.55q9.56,2.22,19,3.66,1.22,3.47,2.52,6.85A251.87,251.87,0,0,1,84,387.26a30,30,0,0,1-5.6-2.16,19.44,19.44,0,0,1-4.72-3.4,20.64,20.64,0,0,1-3.82-5.39A35.83,35.83,0,0,1,67.05,368.12Z"/><path class="cls-2" d="M102.55,436.12a41.74,41.74,0,0,1-4.63-13.48,17.08,17.08,0,0,1,1.41-10.39,14.37,14.37,0,0,1,7.44-6.48,15.17,15.17,0,0,1,9.68-1.16,16.87,16.87,0,0,1,8.16,5.05A45.82,45.82,0,0,1,131.69,420a43.85,43.85,0,0,1,4.47,11.69,16.63,16.63,0,0,1-.61,9.41,16.26,16.26,0,0,1-6.37,7.51,14.54,14.54,0,0,1-9.31,2.92,15.22,15.22,0,0,1-9-4.14A39,39,0,0,1,102.55,436.12Zm3.23-1.79A26.64,26.64,0,0,0,111.4,442a10.52,10.52,0,0,0,6.27,2.86,11.32,11.32,0,0,0,6.92-2.1l1.22-.78a12.58,12.58,0,0,0,4.95-5.34,11.31,11.31,0,0,0,.7-6.65,27.76,27.76,0,0,0-3-8.15,28.52,28.52,0,0,0-5-7.15,11.08,11.08,0,0,0-5.86-3.2,11.68,11.68,0,0,0-7.1,1.22l-1.31.61a11.37,11.37,0,0,0-5.49,4.83,11.6,11.6,0,0,0-1.06,7.09A28,28,0,0,0,105.78,434.33Z"/><path class="cls-2" d="M132.12,480.78c-3.27-4-5.21-7.77-5.87-11.23s.6-6.36,3.69-8.64l17.9-13.27c1.28,1.79,2.59,3.55,3.91,5.29l-17.2,13.5a5.62,5.62,0,0,0-2.27,6.16,12.61,12.61,0,0,0,1.54,3.65,29.37,29.37,0,0,0,2.76,3.82,21.64,21.64,0,0,0,5.85,4.95,13.12,13.12,0,0,0,6.35,1.89,7.17,7.17,0,0,0,5.31-2.12l13.62-13.14q2.22,2.33,4.49,4.58l-22.44,22.83q-2-2-4-4,1.53-2.05,3.07-4.1l-.48-.5a15.45,15.45,0,0,1-5.87-1.26,22,22,0,0,1-5.38-3.32A37,37,0,0,1,132.12,480.78Z"/><path class="cls-2" d="M160.06,508.72l21.24-24c1.28,1.13,2.56,2.24,3.86,3.34l-3.06,4.43.48.41a10.88,10.88,0,0,1,3.28-1,9.63,9.63,0,0,1,4.06.32,14.3,14.3,0,0,1,4.77,2.56,16.32,16.32,0,0,1,1.72,1.49c.5.5.86.88,1.1,1.15l-2.4,3.22L192.9,499a17.6,17.6,0,0,0-4.69-2.66,10,10,0,0,0-4.23-.62,9.06,9.06,0,0,0-3.68,1.1,10.55,10.55,0,0,0-2.94,2.43q-5.93,7.07-11.87,14.12Q162.75,511.11,160.06,508.72Z"/><path class="cls-2" d="M202.51,539.26l14.39-24.37q-3-1.73-5.9-3.52l2-3.14c1.92,1.18,3.86,2.34,5.81,3.46l2.84-4.82a7.94,7.94,0,0,1,2.31-2.51,5.76,5.76,0,0,1,3.55-.93,12.33,12.33,0,0,1,5.19,1.66c.63.33,1.25.68,1.86,1s1.18.71,1.71,1.07a9.66,9.66,0,0,1,1.34,1.07L236.18,511c-1.32-.65-2.63-1.31-3.94-2a5.53,5.53,0,0,0-3.22-.8,2.77,2.77,0,0,0-2,1.53l-2.75,4.94q4,2.14,8,4.13l-1.68,3.3q-4.08-2-8.11-4.18-6.87,12.36-13.75,24.73C206.61,541.58,204.55,540.43,202.51,539.26Z"/><path class="cls-2" d="M235.17,556a33.7,33.7,0,0,1-5.32-2.72,19.41,19.41,0,0,1-4.16-3.44,8.9,8.9,0,0,1-2.13-4,6.37,6.37,0,0,1,.64-4.34,6.92,6.92,0,0,1,4.61-3.78,19,19,0,0,1,7.65-.16A71.13,71.13,0,0,1,246.68,540c3.82,1.17,7.92,2.5,12.35,4l1.32-3.85a5.4,5.4,0,0,0,.11-3.45,6.65,6.65,0,0,0-2.61-3.14,27.63,27.63,0,0,0-6.33-3.12,26.42,26.42,0,0,0-6.71-1.82,7.49,7.49,0,0,0-4.1.48,4.37,4.37,0,0,0-2.07,2.11c-.13.3-.26.59-.4.89q-2.84-1.23-5.64-2.54a2.27,2.27,0,0,1,.19-.59c.09-.18.19-.4.31-.66a6.5,6.5,0,0,1,4.24-3.54,16.35,16.35,0,0,1,7.09-.07,49.81,49.81,0,0,1,9.16,2.62,35.78,35.78,0,0,1,8.19,4.12,13.4,13.4,0,0,1,4.43,4.78,6.88,6.88,0,0,1,.43,5.34q-2.75,8.75-5.5,17.5a1.73,1.73,0,0,0,.21,1.74,3.6,3.6,0,0,0,1.76,1l3.89,1.1c-.25.89-.51,1.79-.77,2.68a26.68,26.68,0,0,1-3.13-.25,20.56,20.56,0,0,1-3.3-.71,9.89,9.89,0,0,1-3.66-1.83,4,4,0,0,1-1.44-2.44,7.68,7.68,0,0,1,.08-2.78l-.64-.21a15.65,15.65,0,0,1-5.37,1.15,27.91,27.91,0,0,1-6.54-.43A34.19,34.19,0,0,1,235.17,556Zm2.78-2.87a25.51,25.51,0,0,0,6,1.6,21.94,21.94,0,0,0,5.7.1,12.31,12.31,0,0,0,4.6-1.41,5.39,5.39,0,0,0,2.57-3l1.06-3.1c-5.42-1.79-10-3.26-13.69-4.29a28.73,28.73,0,0,0-8.9-1.35c-2.21.15-3.71,1-4.47,2.69a3.8,3.8,0,0,0-.07,3.26,7.54,7.54,0,0,0,2.6,3A20.71,20.71,0,0,0,238,553.13Z"/><path class="cls-2" d="M286.66,570.59a296.19,296.19,0,0,1-9.92-35.06q3.15.84,6.33,1.6,2.21,9.11,5,18.21l.9,3.18c.34,1.24.69,2.5,1.05,3.76s.68,2.37.95,3.33l.47.08q.9-1.19,2.1-2.73l2.42-3.12c.81-1.06,1.5-2,2.06-2.67Q304,549.68,309.36,542q3.11.4,6.23.73a300.19,300.19,0,0,1-22.23,29.14Q290,571.25,286.66,570.59Z"/><path class="cls-2" d="M339.68,576.74a33.12,33.12,0,0,1-12.31-2.18,14.34,14.34,0,0,1-7.21-6,15.9,15.9,0,0,1-1.72-9.59,17.39,17.39,0,0,1,3.22-9.2,14.85,14.85,0,0,1,7.33-5,35.51,35.51,0,0,1,11.4-1.45A31,31,0,0,1,351,545a13.93,13.93,0,0,1,9.68,12.83l.21,2.79a276.56,276.56,0,0,1-35.61.08,11.85,11.85,0,0,0,1.36,7,9.75,9.75,0,0,0,5,4.1A24,24,0,0,0,340,573.1a26.94,26.94,0,0,0,6.39-.63,14.11,14.11,0,0,0,4.46-1.76,8,8,0,0,0,2.61-2.61,5.51,5.51,0,0,0,.79-3.08q3.27-.13,6.54-.35a7.83,7.83,0,0,1-1,4.54A11.64,11.64,0,0,1,356,573.1a20.82,20.82,0,0,1-6.63,2.69A40.31,40.31,0,0,1,339.68,576.74Zm-14.24-19.52a270.62,270.62,0,0,0,28.34.28,11.4,11.4,0,0,0-1.28-5,9,9,0,0,0-2.91-3.19,12.16,12.16,0,0,0-4.2-1.7,26.59,26.59,0,0,0-5.37-.54,23,23,0,0,0-7.34,1,9.89,9.89,0,0,0-4.87,3.27A13,13,0,0,0,325.44,557.22Z"/><path class="cls-2" d="M411.67,568.39a31.19,31.19,0,0,1-12.16.86,14.41,14.41,0,0,1-8.34-4.07,16.49,16.49,0,0,1-4.11-8.81,17.62,17.62,0,0,1,.6-9.55,14.38,14.38,0,0,1,5.53-6.71,31.37,31.37,0,0,1,10.18-4.2,35.69,35.69,0,0,1,8-1.21,16.38,16.38,0,0,1,6,.87,10.3,10.3,0,0,1,4.24,2.83,13.43,13.43,0,0,1,2.62,4.6q-3,1-6.11,1.91a9.56,9.56,0,0,0-2.68-4.46,7.54,7.54,0,0,0-4.47-1.71,21.82,21.82,0,0,0-6.8.8,19.76,19.76,0,0,0-6.46,2.76,10.09,10.09,0,0,0-3.8,4.75,13.06,13.06,0,0,0-.22,7.39l.3,1.43a13,13,0,0,0,3.11,6.56,9.82,9.82,0,0,0,5.77,2.87A24.21,24.21,0,0,0,418,561.79a7.42,7.42,0,0,0,3-4,8.51,8.51,0,0,0-.25-4.86c2.08-.62,4.16-1.26,6.23-1.94a11.32,11.32,0,0,1,.6,4.91,9.66,9.66,0,0,1-2,4.81,17.23,17.23,0,0,1-5.13,4.34A33.13,33.13,0,0,1,411.67,568.39Z"/><path class="cls-2" d="M444.49,568.63q-7.77-19.89-15.53-39.8,2.3-.84,4.59-1.73l2.45,4.09.57-.23a15.5,15.5,0,0,1,4-6.07,25.69,25.69,0,0,1,6.9-4.55,26.83,26.83,0,0,1,9.54-2.71,14,14,0,0,1,8.2,1.91,20.1,20.1,0,0,1,6.89,7.43,16.26,16.26,0,0,1,2.63,9.21,13.16,13.16,0,0,1-3.43,8,26.19,26.19,0,0,1-8.79,6.3,34.13,34.13,0,0,1-5.74,2.07,20.4,20.4,0,0,1-5.59.66,14,14,0,0,1-5-1l-.63.25L451.31,566C449.05,566.93,446.78,567.8,444.49,568.63Zm14.66-20.83a20.47,20.47,0,0,0,6.7-4.59,8.67,8.67,0,0,0,2.41-5.65,13.63,13.63,0,0,0-2-6.85c-.25-.44-.5-.89-.74-1.34a14.5,14.5,0,0,0-4.94-5.62,9.67,9.67,0,0,0-5.79-1.36,19.44,19.44,0,0,0-6.57,1.85,19,19,0,0,0-6.44,4.42,9.13,9.13,0,0,0-2.36,5.54,15.35,15.35,0,0,0,1.36,6.8c.14.32.27.64.4,1a14,14,0,0,0,3.56,5.3,9.71,9.71,0,0,0,4.5,2.26,12.4,12.4,0,0,0,5-.08A23.67,23.67,0,0,0,459.15,547.8Z"/><path class="cls-2" d="M489.43,535.14l-24-37.37q2.52-1.56,5-3.2l9.15,13.48.51-.34A17.83,17.83,0,0,1,482,503a21.82,21.82,0,0,1,3.16-4.13,37.77,37.77,0,0,1,4.39-3.86,29.57,29.57,0,0,1,6.65-3.94,11.05,11.05,0,0,1,6.11-.8,9.68,9.68,0,0,1,5.52,3.45l14.91,17q-2.72,2.35-5.48,4.62l-14.19-17a6.84,6.84,0,0,0-2.87-2.18,6,6,0,0,0-3.09-.24,11.39,11.39,0,0,0-3.3,1.22,30.27,30.27,0,0,0-3.54,2.31,21.65,21.65,0,0,0-4.76,4.8,12.12,12.12,0,0,0-2.3,5.63,8.13,8.13,0,0,0,1.48,5.69l10.72,15.81Q492.45,533.28,489.43,535.14Z"/><path class="cls-2" d="M563.35,467.26a29.1,29.1,0,0,1-7,7.09,16.33,16.33,0,0,1-7.62,2.92l-.45.54q1.56,1.83,3.11,3.68c-1.25,1.49-2.51,3-3.78,4.42L514.2,456.47q2-2.31,4-4.7l12.53,10.46.41-.5a13.43,13.43,0,0,1,.25-4.88,21.86,21.86,0,0,1,1.83-4.94,36.75,36.75,0,0,1,2.95-4.85,29.41,29.41,0,0,1,7.16-7.32,14.72,14.72,0,0,1,8.16-2.75,17,17,0,0,1,9.23,2.88c3.45,2.14,5.83,4.58,7.08,7.37a14.22,14.22,0,0,1,.73,9.29A30.46,30.46,0,0,1,563.35,467.26Zm-3.84-1.3a22.07,22.07,0,0,0,3.56-7.12,10.06,10.06,0,0,0-.31-6.48,12.55,12.55,0,0,0-5-5.53l-1.28-.85a14,14,0,0,0-6.77-2.56,9.37,9.37,0,0,0-5.9,1.72,23,23,0,0,0-5.5,5.64,26.46,26.46,0,0,0-2.54,4.29,13,13,0,0,0-1.23,4.64,10.18,10.18,0,0,0,1,4.89,14.21,14.21,0,0,0,4,5c.28.24.56.48.85.71a13.57,13.57,0,0,0,6.17,3.15,9.49,9.49,0,0,0,6.4-1.2A21.15,21.15,0,0,0,559.51,466Z"/><path class="cls-2" d="M587.59,425.94a40.91,40.91,0,0,1-3.32,5.79,22.57,22.57,0,0,1-3.95,4.44,9.66,9.66,0,0,1-4.28,2.18,6.17,6.17,0,0,1-4.39-.83,6.85,6.85,0,0,1-3.41-5.1,21.81,21.81,0,0,1,.6-8.33,91.82,91.82,0,0,1,3.53-11.22c1.57-4.22,3.34-8.81,5.26-13.85l-3.82-1.53a5,5,0,0,0-3.52-.16,7.89,7.89,0,0,0-3.47,2.93,37.57,37.57,0,0,0-3.82,7.06,34.39,34.39,0,0,0-2.53,7.39,8.8,8.8,0,0,0,.09,4.51,4.13,4.13,0,0,0,2,2.32l.87.46c-1,2-2.09,4.06-3.18,6.05a1.92,1.92,0,0,1-.58-.21l-.64-.37a6.37,6.37,0,0,1-3.21-4.69,19.19,19.19,0,0,1,.64-7.74A66.37,66.37,0,0,1,560,405a49.36,49.36,0,0,1,5-9.18,16.52,16.52,0,0,1,5.32-5,6.48,6.48,0,0,1,5.5-.48l17.4,6.4a1.64,1.64,0,0,0,1.8-.24,4.78,4.78,0,0,0,1.18-2q.76-2.25,1.48-4.54l2.68.9c-.12,1.18-.3,2.39-.54,3.65a27.72,27.72,0,0,1-1,3.83,12.67,12.67,0,0,1-2.22,4.21,4.56,4.56,0,0,1-2.63,1.64,7.19,7.19,0,0,1-2.84-.12c-.1.25-.19.49-.28.73a18.94,18.94,0,0,1,.67,6.1,35.83,35.83,0,0,1-1.09,7.34A42.44,42.44,0,0,1,587.59,425.94Zm-2.67-3.13a31.57,31.57,0,0,0,2.24-6.65,27.12,27.12,0,0,0,.66-6.41,14.51,14.51,0,0,0-1-5.21,5.12,5.12,0,0,0-2.81-3l-3.08-1.24c-2.35,6.16-4.3,11.22-5.73,15.35a35.6,35.6,0,0,0-2.28,9.78c-.06,2.42.69,4.07,2.32,4.95a3.66,3.66,0,0,0,3.33.17,8.74,8.74,0,0,0,3.34-2.77A25,25,0,0,0,584.92,422.81Z"/><path class="cls-2" d="M603.08,382.47l-30.9-9.26c.55-1.92,1.07-3.85,1.58-5.8l5.37.8c.06-.24.12-.48.19-.72a11.25,11.25,0,0,1-2.25-2.9,11.9,11.9,0,0,1-1.32-4.48,20.61,20.61,0,0,1,.49-6.52,27.08,27.08,0,0,1,.7-2.7c.27-.82.48-1.43.64-1.84l4,.76c-.21,1.11-.43,2.22-.65,3.32a26,26,0,0,0-.62,6.52,12.76,12.76,0,0,0,1.11,4.82,9.17,9.17,0,0,0,2.5,3.28,9.3,9.3,0,0,0,3.44,1.76l18,4.78C604.59,377.05,603.85,379.77,603.08,382.47Z"/><path class="cls-3" d="M319.17,457.51c-12.59-.56-16.1-1.38-19.06-4.15-6.77-6.33-5.46-18-5-22.37.62-5.5,2.63-10.09,6.63-19.06,7.24-16.21,10.32-18.42,12.43-27.34,1.85-7.81,1.33-13.94.83-19.89-1.08-12.86-4.71-21-11.6-38.11-7.65-19-11.48-28.44-13.26-34-3.86-12-8.79-27.73-9.11-48.06A133.83,133.83,0,0,1,284.79,211H398.3A181.77,181.77,0,0,1,402,239.58c.52,10.16,1.21,23.56-2.48,39.78-1.89,8.27-5.4,16.56-12.43,33.14C378.33,333.22,377,333.29,373,344.82c-5.17,15.14-8.62,25.27-6.63,38.11,1.38,8.89,4.93,16.21,9.12,24.86,6.13,12.67,9.67,15,11.6,24,1.05,4.95,3.58,16.83-2.49,23.2-4.32,4.54-9.12,2.2-33.14,2.49C341.43,457.63,333.54,458.14,319.17,457.51Z"/><line class="cls-4" x1="293.96" y1="443.94" x2="389.96" y2="443.62"/><path class="cls-5" d="M300.11,188.21a17,17,0,0,0-12.42,4.14c-4.45,4-6.67,10.53-5,15.75,3.52,10.84,22.24,10.77,24,10.77a36.9,36.9,0,0,0,16.58-4.14,28.47,28.47,0,0,1,7.45,11.6c2.46,7.55-.38,10.85,2.49,15.74,3.34,5.7,11.65,8.83,19.06,7.46,1-.19,9-1.8,12.43-8.29,2.19-4.2.8-7.3.82-17.4a111.11,111.11,0,0,1,.83-13.26,16,16,0,0,1,9.12-4.14c6.9-.52,9.82,4.89,16.57,4.14,3.83-.42,8.23-2.76,9.94-6.63,2.56-5.8-1.81-13.06-6.63-16.57-6.65-4.85-14.53-2.82-15.74-2.48,1.3-5.11-.36-10.38-4.14-13.26-4.89-3.72-12.67-2.94-17.4,2.48-.23-1-2-8.3-9.12-11.6-7.85-3.65-15.31.86-16.57,1.66a19.29,19.29,0,0,0-7.46,9.11c-.81-.63-6.54-5-13.26-3.31C304.73,171.73,299.49,179.31,300.11,188.21Z"/><path class="cls-2" d="M385,238c-1.11,0-.14,16.21-8,36-1.63,4.11-1.66,3.37-8,17-7.66,16.47-11.49,24.7-11,25,1.54.94,23.46-21.2,28-52C388.07,250,386,238,385,238Z"/></g></svg>