<svg xmlns="http://www.w3.org/2000/svg" viewBox="0 0 949 1185"><defs><style>.cls-1{fill:none;stroke-width:4px;}.cls-1,.cls-2,.cls-3{stroke:#fff;stroke-miterlimit:10;}.cls-2,.cls-3,.cls-4{fill:#fff;}.cls-3{stroke-width:9px;}</style></defs><g id="Layer_14" data-name="Layer 14"><path class="cls-1" d="M465.6,1018.94c8.21,22,13.8,33.49,19.54,56.74,3.27,13.24,4.84,23.22,11.15,37.9,5.53,12.85,10.75,25,19.54,32.6,15.25,13.21,38.69,8.7,85-.86,62.25-12.86,90-29.19,99.11-34.84,20.4-12.66,31.26-19.62,37-33.61,9.2-22.54-3-43.63-16.16-79-11.6-31.25-.43-10.1-26.24-98.8-24.19-83.14-27.07-78.3-45.69-145.62-3.58-12.94-12.27-44.91-25.78-87.58-14.35-45.33-18.5-53.33-23.69-61.2-11.16-16.92-32.25-41-50.06-59.12h0c-15.17-14.69-22.18-19-32.46-33.06-13.15-18-16.16-30.82-28.22-67C470.22,390.51,461,363,454,352c-14.63-22.8-30-36.23-28.54-58.36.51-7.51,3-15.87-1.69-25.07a33.69,33.69,0,0,0-23.53-17.22c-10.66-1.82-13.2,3.86-50,23.23-13.17,6.94-19.39,9.66-20.83,16.08-1.85,8.21,5.68,15.6,10.84,22.37,8.62,11.31,10.29,20.44,17.7,60.13,23.45,125.72,25,132.38,25.17,153.08.27,33.31-4.85,74.66-6.07,85.58-3.19,28.72-5.16,35.74-5.37,54.13-.26,22.72,2.39,44.16,10.16,78,8.38,36.42,16,58,28.47,96.73C443.4,943.44,446.43,967.58,465.6,1018.94Z"/><path class="cls-2" d="M344.47,311c0,1.39,16.13,3.68,34.21,0a73.5,73.5,0,0,0,25.37-9.48c8.29-5.13,23.58-14.59,22.33-26.7-1.22-11.91-17.83-20-19.5-18.4-1.17,1.13,5.84,6.15,6.21,14.27.71,15.34-22.93,27.92-27.34,30.17C364.16,311.87,344.42,309.45,344.47,311Z"/><path class="cls-3" d="M376.32,474.26c-5.92-2.69-2.24-12.21-10.31-25.37-4.25-6.93-6.09-5.62-9.07-11.53-5.61-11.12.69-16.15-3.77-27.3-5.56-13.87-20.49-19-21.31-19.29a33.12,33.12,0,0,0-9-1.62,20.32,20.32,0,0,1-8.46-4.61c-6.82-6.27-8.73-17.22-5.46-28.22,2.2-3.1,5-8,3.45-12.38-2.16-6-10.47-4.63-16.38-12.22-5.58-7.19-4.41-16.5-4.07-18.68A26.88,26.88,0,0,1,298,299.89h0a32.79,32.79,0,0,1,10.38-13c-1-1.76-4.43-8.65-2-16.45,2-6.37,7.76-13,12.07-12.08,4.76,1,6.24,10.9,7.38,10.61,1.38-.34-3.73-14.16,1.53-18.91,4.49-4.05,12.5,2.11,17.76-2.39,3.73-3.18,1-7.34,4.77-12.76,4.69-6.71,15.4-9.66,20.91-6.16,3.09,2,1.9,4.28,4.92,7.08,5.54,5.12,12.95.55,24.92,2.61,3.78.65,15.72,2.71,18.61,10.14,3.7,9.55-9.93,21.79-11.61,23.3-2.72,2.45-11.74,10.55-22.76,9.54-6.78-.62-8.3-4.14-13.69-3.07-6.73,1.33-10.77,8.09-13.37,12.46a39.89,39.89,0,0,0-5.31,15.76c1.16,4.27,3.27,9.15,7.39,10.61,5.43,1.93,10.16-3.57,13.84-1.23,3.28,2.08,3.81,9.16,1.23,13.84-3.06,5.55-8.61,4.29-10.22,8.69-2.21,6,7.15,11,5.38,18.3-1.41,5.85-8.34,6.57-8.15,10.92.23,5,9.63,5.83,10.38,11.14.9,6.3-11.62,10.05-10.91,16,.75,6.33,15.36,5.49,18.45,14.45,2.32,6.7-4.08,12.31-.61,17.22,2.66,3.78,7.28,1.67,10.15,5.54s-.49,7.52-.61,17.22c-.14,11.32,4.3,14.53,1.46,19.45C387.73,473.22,380.74,476.28,376.32,474.26Z"/><path class="cls-4" d="M330,171c6,7.06,38.57-27,84-25,34.83,1.53,54.14,23.23,61,16s-5.05-37.54-28-54c-26.19-18.78-58.62-13.84-97-8-20.66,3.15-51,8-86,26.42-52.7,27.66-80.75,67.36-94,86.58-13.81,20-38,60.21-57,163-14.2,76.68-31.13,173.19-8,296,13.93,73.94,23.31,123.73,65,174,57.68,69.55,135.9,90.23,163,97,15,3.74,73.5,17.25,148,3,27-5.16,123.86-25.08,194-106,14.78-17,25-32.91,79-191,60-175.65,65.12-207.89,60-250-3.78-31.06-12.08-92.29-60-140-33.12-33-70.92-45.3-116-60-32.77-10.69-62.78-15.83-95.56-11.57C528.85,189.2,493.52,193.79,489,211c-4,15.32,20.79,23.77,26,51,6.35,33.17-22.26,63.61-20,65s22.4-37.14,62.5-70.5C568.91,247,581.73,236.34,595,231c52.54-21.16,141,29.5,179.5,93.5C819.88,399.85,791.5,486,749,615S673.88,843,577.5,894.5c-64.26,34.32-131.71,34.13-176,34-54-.16-112.15-.32-165.5-37.5-46.68-32.53-65-76.2-88-131-43.35-103.3-41.4-194.91-40-239,2.73-86,22.5-149.17,34-185,17.52-54.58,28.13-87.61,57-123,57.77-70.81,146.2-99,154-88C358.64,132.93,324,164,330,171Z"/><path class="cls-2" d="M369.81,695.65c2.61-8.06,33.81-1.66,59.13-1.78,46.08-.23,84.46-22.14,114.79-39.46,28.78-16.44,57.35-38.65,64.51-31.77,1.33,1.28.91,2.6,3.07,10.46a149.43,149.43,0,0,0,7.47,20.53c8.58,20.87,25.77,87.57,25.77,87.57,16.23,63,25.26,73.58,46.46,148.24,13.5,47.53,9.28,41.28,16,59.2,6.31,16.82,10.31,23.09,7.92,31.75-3.75,13.62-19.59,19.7-50.67,30.54-51.92,18.1-80.09,26.37-95.95,31.07-52.37,15.54-66.15,20.63-80.19,12.24s-18.72-24.69-21.23-33.52c-14-49.37-30.78-97.93-46.08-146.93-12-38.43-43.66-128.53-44.77-147.31a76.79,76.79,0,0,0-2.77-19.07C371,699.51,369.1,697.85,369.81,695.65Z"/></g></svg>