<svg xmlns="http://www.w3.org/2000/svg" viewBox="0 0 667 627"><defs><style>.cls-1,.cls-3,.cls-4{fill:none;}.cls-1,.cls-3,.cls-4,.cls-5{stroke:#fff;stroke-miterlimit:10;}.cls-1{stroke-width:7px;}.cls-2,.cls-5{fill:#fff;}.cls-3,.cls-5{stroke-width:9px;}.cls-4{stroke-width:5px;}</style></defs><g id="fome"><path class="cls-1" d="M82.33,313.59C82.33,159.58,198.8,35,342.73,35"/><path class="cls-1" d="M602.24,313.59c0-154-116.47-278.63-260.4-278.63"/><path class="cls-2" d="M34.58,352.45c-.2-.94-.39-1.91-.55-2.91s-.33-2-.49-3.08l2.56-.52c.29,1.46.59,2.91.9,4.36a44.2,44.2,0,0,0,2.2,7.3,16.36,16.36,0,0,0,4.15,6,19.81,19.81,0,0,0,7.83,4.07,347,347,0,0,1,29.19-34q.6,3.09,1.24,6.14-8.42,8.81-16.35,18.41l-2.73,3.3q-1.59,1.92-3.2,4c-1.08,1.35-2,2.53-2.84,3.51.07.25.14.51.22.76.86.2,1.85.44,3,.74l3.45.89,3.39.87c1.07.28,2,.51,2.83.68q11.48,2.85,22.88,4.69.93,2.6,1.89,5.16a279.45,279.45,0,0,1-41.25-9.22A34.19,34.19,0,0,1,46.56,371a20.65,20.65,0,0,1-5.09-3.79,22,22,0,0,1-4-5.85A41.14,41.14,0,0,1,34.58,352.45Z"/><path class="cls-2" d="M74.14,429.09a44.44,44.44,0,0,1-4.89-14.79A19.22,19.22,0,0,1,71,402.72a16.59,16.59,0,0,1,8.56-7.33,17.45,17.45,0,0,1,11-1.31,18.92,18.92,0,0,1,9.17,5.54,47,47,0,0,1,7.73,11.28,44.91,44.91,0,0,1,4.69,12.76,17.65,17.65,0,0,1-8.26,19c-3.6,2.42-7.14,3.55-10.63,3.3a17.24,17.24,0,0,1-10.11-4.6A41.93,41.93,0,0,1,74.14,429.09Zm2.61-1.43a33.64,33.64,0,0,0,6.82,9.41A12.31,12.31,0,0,0,100,438.35l1.75-1.13a15,15,0,0,0,6.09-6.72,14.63,14.63,0,0,0,.71-8.31,35.87,35.87,0,0,0-3.62-9.87,36.48,36.48,0,0,0-6-8.73,14.38,14.38,0,0,0-7.18-4.25,14.06,14.06,0,0,0-8.88,1.29l-1.88.86a13.42,13.42,0,0,0-6.81,6,14.9,14.9,0,0,0-1.24,9A35.72,35.72,0,0,0,76.75,427.66Z"/><path class="cls-2" d="M107.23,479.59c-3.74-4.57-6-8.89-6.72-12.77s.63-7.09,4.06-9.6l20.86-15.31c1,1.37,2,2.73,2.95,4.07l-20.57,15.71a7.34,7.34,0,0,0-2.72,3.55,7.53,7.53,0,0,0-.1,4.14,16.52,16.52,0,0,0,2,4.56,40.19,40.19,0,0,0,3.45,4.82,28.06,28.06,0,0,0,7.32,6.31,17.21,17.21,0,0,0,8.16,2.57,9.12,9.12,0,0,0,6.93-2.69l15.64-15.13q1.68,1.77,3.41,3.5l-25.82,25.91c-1-1-1.89-1.92-2.83-2.9q2-2.41,4-4.81l-.55-.58a18.4,18.4,0,0,1-7.33-1.43,24.17,24.17,0,0,1-6.38-4A48.25,48.25,0,0,1,107.23,479.59Z"/><path class="cls-2" d="M138.25,510.8l24.36-27.3,2.72,2.4q-1.89,2.55-3.76,5.11l.47.41a11.41,11.41,0,0,1,3.67-1.22,10.92,10.92,0,0,1,4.75.38,16.75,16.75,0,0,1,5.63,3.07,24.31,24.31,0,0,1,1.89,1.63,13.1,13.1,0,0,1,1.1,1.19l-1.76,2.32q-1.14-.84-2.25-1.71a18.33,18.33,0,0,0-5.62-3.11,11.71,11.71,0,0,0-5-.52,11,11,0,0,0-4.27,1.44,13.07,13.07,0,0,0-3.35,2.76l-14.42,16.77Q140.31,512.64,138.25,510.8Z"/><path class="cls-2" d="M185.23,544.87,202.41,516c-2.31-1.35-4.6-2.72-6.87-4.14.53-.84,1.07-1.68,1.61-2.52,2.24,1.4,4.51,2.76,6.79,4.09q1.86-3.11,3.7-6.21a8.83,8.83,0,0,1,2.29-2.54,5.66,5.66,0,0,1,3.55-1,11.75,11.75,0,0,1,5.21,1.67c.66.35,1.3.7,1.93,1.06s1.21.71,1.76,1.07a13.88,13.88,0,0,1,1.48,1.1l-1.15,2.22q-2.33-1.17-4.63-2.39a6.45,6.45,0,0,0-3.84-1,3.36,3.36,0,0,0-2.4,1.81c-1.26,2.19-2.51,4.39-3.76,6.58q4.66,2.6,9.43,5c-.45.89-.91,1.77-1.37,2.65q-4.83-2.43-9.55-5.06-8.33,14.58-16.67,29.16C188.35,546.67,186.78,545.78,185.23,544.87Z"/><path class="cls-2" d="M220.82,563.4a38.84,38.84,0,0,1-6.63-3.48,20.69,20.69,0,0,1-4.63-4.09,9.87,9.87,0,0,1-2.15-4.45,7.17,7.17,0,0,1,.76-4.57,7.72,7.72,0,0,1,5.47-4.23,23.41,23.41,0,0,1,9.07.14,97.9,97.9,0,0,1,12.11,3.14c4.52,1.44,9.37,3,14.58,4.75l1.78-5.19a6.62,6.62,0,0,0,.08-4.43,8.74,8.74,0,0,0-3.56-4,41.92,41.92,0,0,0-8.3-4.05,35.06,35.06,0,0,0-8.54-2.42,9.71,9.71,0,0,0-5.35.61,6,6,0,0,0-2.86,2.86l-.5,1.07c-1.44-.66-2.86-1.32-4.28-2a2.49,2.49,0,0,1,.21-.67c.1-.21.23-.45.37-.75a7.5,7.5,0,0,1,4.93-4.12,17.81,17.81,0,0,1,8,0,61.24,61.24,0,0,1,10.39,3.12,40.67,40.67,0,0,1,8.86,4.52,15.22,15.22,0,0,1,4.9,5.28,7.47,7.47,0,0,1,.47,5.86l-7,21.66a2.11,2.11,0,0,0,.08,1.92A3.59,3.59,0,0,0,251,571q2.5.75,5,1.46c-.18.62-.37,1.24-.55,1.86a23.53,23.53,0,0,1-6.84-1,8.38,8.38,0,0,1-3.95-2.15,3.71,3.71,0,0,1-.94-2.79,12.58,12.58,0,0,1,.67-3.17l-.73-.24a17.7,17.7,0,0,1-6.62,1.47,34.64,34.64,0,0,1-8-.58A40.64,40.64,0,0,1,220.82,563.4Zm1.59-2.57a33.83,33.83,0,0,0,7.43,2.09,30.91,30.91,0,0,0,7.49.36,16.63,16.63,0,0,0,6.15-1.58,6.37,6.37,0,0,0,3.38-3.67l1.53-4.46c-7.4-2.44-13.43-4.46-18.21-5.81s-8.51-2-11.23-1.81-4.6,1.31-5.6,3.4a5,5,0,0,0-.14,4.38,10.19,10.19,0,0,0,3.43,3.93A27.89,27.89,0,0,0,222.41,560.83Z"/><path class="cls-2" d="M279.56,580.28a328.11,328.11,0,0,1-11.31-40.1q2.42.66,4.86,1.27,2.56,11.13,6,22.24c.34,1.06.7,2.31,1.09,3.73s.81,2.86,1.25,4.29.83,2.67,1.15,3.71l.53.11c.77-.84,1.63-1.85,2.59-3s1.95-2.32,3-3.49,1.84-2.18,2.49-3q7.39-9,14-18.44c1.56.2,3.13.39,4.69.57a333.13,333.13,0,0,1-25.8,33Z"/><path class="cls-2" d="M336.52,587.19a35.71,35.71,0,0,1-13.5-2.57,16.18,16.18,0,0,1-8-6.87c-1.68-3-2.26-6.64-1.84-11a20.13,20.13,0,0,1,3.71-10.49,16.85,16.85,0,0,1,8.28-5.66,38.74,38.74,0,0,1,12.66-1.59A34.34,34.34,0,0,1,349.72,551a17.06,17.06,0,0,1,7.6,5.42,15.6,15.6,0,0,1,3.13,8.62l.24,3.46a305.38,305.38,0,0,1-42.24-.34c-.29,3.69.23,6.71,1.63,9.06a12.39,12.39,0,0,0,6.4,5.2,30,30,0,0,0,10.41,1.8,34.07,34.07,0,0,0,8.65-.81,18.39,18.39,0,0,0,5.74-2.33,10,10,0,0,0,3.25-3.31,7.37,7.37,0,0,0,1.06-3.72c1.65-.07,3.29-.16,4.94-.26a9.84,9.84,0,0,1-1.16,4.73,12.55,12.55,0,0,1-4,4.36,22.28,22.28,0,0,1-7.45,3.2A43.66,43.66,0,0,1,336.52,587.19Zm-17.84-22a302,302,0,0,0,36.6.6,15,15,0,0,0-1.67-6.56,11.48,11.48,0,0,0-3.86-4.17,16.75,16.75,0,0,0-5.54-2.27,34.8,34.8,0,0,0-6.9-.75,28.09,28.09,0,0,0-9.34,1.19,13.07,13.07,0,0,0-6.24,4.22A15.74,15.74,0,0,0,318.68,565.18Z"/><path class="cls-2" d="M418.67,578a33.07,33.07,0,0,1-13.31.83,16.43,16.43,0,0,1-9.35-4.72,18.81,18.81,0,0,1-4.69-10,20.12,20.12,0,0,1,.68-10.8,16.37,16.37,0,0,1,6.13-7.7,33.25,33.25,0,0,1,11.21-4.72,39.1,39.1,0,0,1,9.17-1.35,16.22,16.22,0,0,1,6.54,1.15,11.69,11.69,0,0,1,4.46,3.36,16.92,16.92,0,0,1,2.77,5.08q-2.31.75-4.64,1.45a12.86,12.86,0,0,0-3.4-5.71,9,9,0,0,0-5.6-2.15,29.5,29.5,0,0,0-8.72,1.11,26.9,26.9,0,0,0-7.9,3.25,12.92,12.92,0,0,0-5.1,5.79c-1.08,2.43-1.28,5.53-.52,9.3.13.68.27,1.36.41,2.05a15.06,15.06,0,0,0,3.94,8.1,12.8,12.8,0,0,0,7.39,3.48,31.13,31.13,0,0,0,19.2-4.55,9.15,9.15,0,0,0,3.75-5.14,11.13,11.13,0,0,0-.38-6.11l4.8-1.5a13.51,13.51,0,0,1,.71,5.23,10.84,10.84,0,0,1-1.91,5.37,17.33,17.33,0,0,1-5.53,5A35.65,35.65,0,0,1,418.67,578Z"/><path class="cls-2" d="M455.59,578.53l-17.72-45.48c1.08-.39,2.16-.79,3.23-1.2l2.75,4.93.66-.26a18.14,18.14,0,0,1,4.67-7.1,29,29,0,0,1,8-5.23,31,31,0,0,1,11-3.07,16.11,16.11,0,0,1,9.35,2.27,23.37,23.37,0,0,1,7.89,8.6c2.15,3.68,3.14,7.15,2.91,10.44a15.17,15.17,0,0,1-4,9.13A30.7,30.7,0,0,1,474,558.82a36.2,36.2,0,0,1-6.4,2.24,23.81,23.81,0,0,1-6.53.73,15.56,15.56,0,0,1-6-1.34l-.72.28,6.49,15.84Q458.21,577.58,455.59,578.53Zm16.35-22.09a25.49,25.49,0,0,0,8.29-5.65,11.23,11.23,0,0,0,3.14-7.1,16.16,16.16,0,0,0-2.43-8.62c-.35-.61-.69-1.22-1-1.84-1.91-3.42-4-5.75-6.36-7a12.47,12.47,0,0,0-7.28-1.52,27.93,27.93,0,0,0-15.84,7.68,11.34,11.34,0,0,0-3,6.91,19.1,19.1,0,0,0,1.62,8.52l.53,1.29a17,17,0,0,0,4.67,6.95,11.8,11.8,0,0,0,5.88,2.65,16.72,16.72,0,0,0,6.22-.34A32.65,32.65,0,0,0,471.94,556.44Z"/><path class="cls-2" d="M505.42,541.05q-13.67-21.36-27.34-42.72c1.29-.79,2.56-1.59,3.83-2.41l10.45,15.72.6-.38a19.68,19.68,0,0,1,2.31-5.82,24.88,24.88,0,0,1,3.8-4.81,47.41,47.41,0,0,1,5.11-4.39,35.77,35.77,0,0,1,7.54-4.49,12.12,12.12,0,0,1,6.82-.93,10.68,10.68,0,0,1,6.12,3.83q8.61,9.89,17.23,19.78-2.08,1.79-4.19,3.53l-16.88-20.07a8.43,8.43,0,0,0-3.6-2.68,7.16,7.16,0,0,0-3.84-.24,13.93,13.93,0,0,0-4.05,1.59,40,40,0,0,0-4.28,2.8,28.73,28.73,0,0,0-6,6,16,16,0,0,0-3.09,7.13,10.35,10.35,0,0,0,1.86,7.41Q503.93,529,510,538.17C508.49,539.14,507,540.11,505.42,541.05Z"/><path class="cls-2" d="M587.85,465.55a33,33,0,0,1-8.13,8.2,19.11,19.11,0,0,1-9,3.31l-.51.62L574,482q-1.32,1.56-2.67,3.12L533,451.6q1.53-1.77,3-3.58l14.49,12.19.47-.57a15.22,15.22,0,0,1,.25-5.9,26.22,26.22,0,0,1,2.14-5.75,41.24,41.24,0,0,1,3.27-5.38,34.61,34.61,0,0,1,8.31-8.54,16.93,16.93,0,0,1,9.3-3.18,19,19,0,0,1,10.46,3.21c4,2.46,6.74,5.26,8.19,8.47a16.36,16.36,0,0,1,.88,10.62A35,35,0,0,1,587.85,465.55Zm-2.43-1.8a27.63,27.63,0,0,0,4.26-8.54,12.91,12.91,0,0,0-.26-8.23c-1-2.62-3.12-5-6.39-7.07l-1.77-1.14a16.6,16.6,0,0,0-8.53-3,12.3,12.3,0,0,0-7.34,2.33,28.66,28.66,0,0,0-6.7,6.92,37.25,37.25,0,0,0-2.9,4.82,17,17,0,0,0-1.73,5.68,12.36,12.36,0,0,0,1,6.28,17.58,17.58,0,0,0,5.24,6.58l1.08.91a17.18,17.18,0,0,0,7.77,4,11.83,11.83,0,0,0,8.06-1.56A26.93,26.93,0,0,0,585.42,463.75Z"/><path class="cls-2" d="M615.66,417.91a45.75,45.75,0,0,1-4.16,7.26,24,24,0,0,1-4.61,5,10.63,10.63,0,0,1-4.75,2.25,6.81,6.81,0,0,1-4.63-.92,7.63,7.63,0,0,1-3.85-6,27.33,27.33,0,0,1,1-9.88,127.64,127.64,0,0,1,4.29-13.36c1.87-5.05,3.92-10.52,6.12-16.51l-5.17-2a6.15,6.15,0,0,0-4.54-.07c-1.45.56-2.91,1.93-4.41,4.07a57.66,57.66,0,0,0-4.87,9.33,44.17,44.17,0,0,0-3.23,9.45,11.07,11.07,0,0,0,.15,5.86,5.78,5.78,0,0,0,2.68,3.16l1,.57q-1.2,2.33-2.43,4.61a2.08,2.08,0,0,1-.66-.24l-.74-.42a7.36,7.36,0,0,1-3.79-5.42,20.93,20.93,0,0,1,.74-8.78,81.57,81.57,0,0,1,4.11-11.49,54.65,54.65,0,0,1,5.4-10,18.75,18.75,0,0,1,5.82-5.65,7,7,0,0,1,6-.6L622.78,386a2,2,0,0,0,2-.12,4.67,4.67,0,0,0,1.25-2.18q1-2.93,1.9-5.88l1.86.61a32.63,32.63,0,0,1-.6,4.42,31.54,31.54,0,0,1-1,3.57,11,11,0,0,1-2.52,4.59,3.87,3.87,0,0,1-2.94,1.1,10.61,10.61,0,0,1-3.19-.75c-.11.28-.21.56-.31.84a21.38,21.38,0,0,1,.95,7.54,43.67,43.67,0,0,1-1.29,9A49.27,49.27,0,0,1,615.66,417.91Zm-2.5-1.78a41.81,41.81,0,0,0,2.8-8.26,38.47,38.47,0,0,0,1-8.44,19.62,19.62,0,0,0-1.1-7,6.11,6.11,0,0,0-3.47-3.84L608,386.88c-3.12,8.5-5.72,15.25-7.53,20.55s-2.8,9.37-2.84,12.34.94,5,3,6.16a4.78,4.78,0,0,0,4.48.22,11.7,11.7,0,0,0,4.34-3.69A32.87,32.87,0,0,0,613.16,416.13Z"/><path class="cls-2" d="M632.91,368.48,597.52,358.2c.38-1.37.75-2.75,1.11-4.13l6.31,1.09.18-.71a11.7,11.7,0,0,1-2.63-3.15,13.4,13.4,0,0,1-1.6-5.21,24.17,24.17,0,0,1,.55-7.72c.23-1.12.48-2.1.75-3s.48-1.49.64-1.88l2.89.55c-.21,1.15-.44,2.28-.66,3.42a26.29,26.29,0,0,0-.59,7.76,14.61,14.61,0,0,0,1.56,5.57,11.2,11.2,0,0,0,3.09,3.67,11.6,11.6,0,0,0,4,2l21.52,5.76C634.05,364.31,633.49,366.41,632.91,368.48Z"/><path class="cls-3" d="M319.17,457.51c-12.59-.56-16.1-1.38-19.06-4.15-6.77-6.33-5.46-18-5-22.37.62-5.5,2.63-10.09,6.63-19.06,7.24-16.21,10.32-18.42,12.43-27.34,1.85-7.81,1.33-13.94.83-19.89-1.08-12.86-4.71-21-11.6-38.11-7.65-19-11.48-28.44-13.26-34-3.86-12-8.79-27.73-9.11-48.06A133.83,133.83,0,0,1,284.79,211H398.3A181.77,181.77,0,0,1,402,239.58c.52,10.16,1.21,23.56-2.48,39.78-1.89,8.27-5.4,16.56-12.43,33.14C378.33,333.22,377,333.29,373,344.82c-5.17,15.14-8.62,25.27-6.63,38.11,1.38,8.89,4.93,16.21,9.12,24.86,6.13,12.67,9.67,15,11.6,24,1.05,4.95,3.58,16.83-2.49,23.2-4.32,4.54-9.12,2.2-33.14,2.49C341.43,457.63,333.54,458.14,319.17,457.51Z"/><line class="cls-4" x1="293.96" y1="443.94" x2="389.96" y2="443.62"/><path class="cls-5" d="M300.11,188.21a17,17,0,0,0-12.42,4.14c-4.45,4-6.67,10.53-5,15.75,3.52,10.84,22.24,10.77,24,10.77a36.9,36.9,0,0,0,16.58-4.14,28.47,28.47,0,0,1,7.45,11.6c2.46,7.55-.38,10.85,2.49,15.74,3.34,5.7,11.65,8.83,19.06,7.46,1-.19,9-1.8,12.43-8.29,2.19-4.2.8-7.3.82-17.4a111.11,111.11,0,0,1,.83-13.26,16,16,0,0,1,9.12-4.14c6.9-.52,9.82,4.89,16.57,4.14,3.83-.42,8.23-2.76,9.94-6.63,2.56-5.8-1.81-13.06-6.63-16.57-6.65-4.85-14.53-2.82-15.74-2.48,1.3-5.11-.36-10.38-4.14-13.26-4.89-3.72-12.67-2.94-17.4,2.48-.23-1-2-8.3-9.12-11.6-7.85-3.65-15.31.86-16.57,1.66a19.29,19.29,0,0,0-7.46,9.11c-.81-.63-6.54-5-13.26-3.31C304.73,171.73,299.49,179.31,300.11,188.21Z"/><path class="cls-2" d="M385,238c-1.11,0-.14,16.21-8,36-1.63,4.11-1.66,3.37-8,17-7.66,16.47-11.49,24.7-11,25,1.54.94,23.46-21.2,28-52C388.07,250,386,238,385,238Z"/></g></svg>