<svg id="Layer_1" data-name="Layer 1" xmlns="http://www.w3.org/2000/svg" width="38.3" height="37.73" viewBox="0 0 38.3 37.73"><defs><style>.cls-1{fill:#fff;}</style></defs><g id="Icon_ionic-logo-no-smoking" data-name="Icon ionic-logo-no-smoking"><path id="Path_5" data-name="Path 5" class="cls-1" d="M28.22,19.24h1.13v3.37H28.22Z"/><path id="Path_6" data-name="Path 6" class="cls-1" d="M7.33,22.61h9.11l-3.37-3.37H7.33Z"/><path id="Path_7" data-name="Path 7" class="cls-1" d="M28.42,2.37l-.08-.05A18.54,18.54,0,0,0,25.4,1.07L24.93.92A19.24,19.24,0,0,0,19.15,0,19,19,0,0,0,0,18.86,18.81,18.81,0,0,0,9.86,35.35l.1.06a19.51,19.51,0,0,0,2.94,1.25l.46.15a19.26,19.26,0,0,0,5.79.92A19,19,0,0,0,38.3,18.86,18.79,18.79,0,0,0,28.42,2.37ZM19.15,33.22a15.16,15.16,0,0,1-2.33-.2,15.74,15.74,0,0,1-2.43-.62l-.48-.16a14.75,14.75,0,0,1-1.62-.72,14.32,14.32,0,0,1-7.7-12.66,14,14,0,0,1,2.8-8.37l20.26,20A14.67,14.67,0,0,1,19.15,33.22Zm11.78-6-20.28-20a14.66,14.66,0,0,1,8.5-2.75,15.16,15.16,0,0,1,2.33.2,15.74,15.74,0,0,1,2.43.62l.48.16a14.11,14.11,0,0,1,1.54.68,14.33,14.33,0,0,1,7.8,12.7,14.18,14.18,0,0,1-2.8,8.37Z"/><path id="Path_8" data-name="Path 8" class="cls-1" d="M27.2,19.12H24.8l2.4,2.39Z"/><path id="Path_9" data-name="Path 9" class="cls-1" d="M30.29,19.24h1.12v3.37H30.29Z"/><path id="Path_10" data-name="Path 10" class="cls-1" d="M27.58,12.71a7.91,7.91,0,0,0-3.2-.4h-.25c-.9,0-1.12,0-1.41-.43A1.73,1.73,0,0,1,23,10.34a.56.56,0,0,0-.47-.88,4,4,0,0,1-1.28-.27,1.63,1.63,0,0,1-1.1-1.63,1.76,1.76,0,0,1,1.58-1.94h0V4.49A2.92,2.92,0,0,0,19,7.56a2.76,2.76,0,0,0,1.81,2.67,4.06,4.06,0,0,0,.84.25,2.35,2.35,0,0,0,.12,2,2.33,2.33,0,0,0,2.34.92h.26a7,7,0,0,1,2.73.3c.4.19.48.53.46,1.1v.07h1.13v-.07A2.06,2.06,0,0,0,27.58,12.71Z"/><path id="Path_11" data-name="Path 11" class="cls-1" d="M31.09,16.47A6.78,6.78,0,0,0,30.45,13a3.1,3.1,0,0,0-2.74-1.57H26.49a4.62,4.62,0,0,0,.25-2.18c-.23-1.32-1.35-2.1-3-2.1V8.25c1.48,0,1.84.64,1.93,1.18a4.37,4.37,0,0,1-.48,2.27.54.54,0,0,0,0,.55.59.59,0,0,0,.49.28h2.07a1.94,1.94,0,0,1,1.77,1A5.42,5.42,0,0,1,30,16.46h1.13Z"/></g></svg>