<svg id="Layer_1" data-name="Layer 1" xmlns="http://www.w3.org/2000/svg" width="27.07" height="28" viewBox="0 0 27.07 28"><defs><style>.cls-1{fill:#fff;}</style></defs><path id="Icon_awesome-smoking" data-name="Icon awesome-smoking" class="cls-1" d="M26.72,19.25h-2a.39.39,0,0,0-.33.44v7.87a.39.39,0,0,0,.33.44h2a.39.39,0,0,0,.34-.44V19.69A.4.4,0,0,0,26.72,19.25ZM23.4,4.76a1.23,1.23,0,0,1-.4-.92V.44A.39.39,0,0,0,22.67,0h-2a.41.41,0,0,0-.34.44V3.85a4,4,0,0,0,1.21,3,8.84,8.84,0,0,1,2.85,6.78v1.65a.39.39,0,0,0,.33.44h2a.39.39,0,0,0,.34-.44V13.65A11.78,11.78,0,0,0,23.4,4.76ZM18.27,19.25H2a2.39,2.39,0,0,0-2,2.63v3.5A2.39,2.39,0,0,0,2,28H18.27a.81.81,0,0,0,.68-.88v-7A.81.81,0,0,0,18.27,19.25Zm-1.36,6.13H9.48v-3.5h7.43ZM20.63,7.74A5.2,5.2,0,0,1,19,3.84V.44A.41.41,0,0,0,18.61,0h-2a.41.41,0,0,0-.34.44V4.07A7.89,7.89,0,0,0,18.79,9.9a5.08,5.08,0,0,1,1.51,3.75v1.66a.41.41,0,0,0,.34.44h2a.41.41,0,0,0,.34-.44V13.65a8,8,0,0,0-2.38-5.91Zm2,11.51h-2a.41.41,0,0,0-.34.44v7.87a.4.4,0,0,0,.34.44h2a.39.39,0,0,0,.33-.44V19.69A.39.39,0,0,0,22.67,19.25Z"/></svg>