<svg id="Layer_2" data-name="Layer 2" xmlns="http://www.w3.org/2000/svg" width="48" height="48" viewBox="0 0 48 48">
  <g id="invisible_box" data-name="invisible box">
    <rect id="Rectangle_4" data-name="Rectangle 4" width="48" height="48" fill="none"/>
  </g>
  <g id="icons_Q2" data-name="icons Q2">
    <g id="Group_1" data-name="Group 1">
      <path id="Path_2" data-name="Path 2" d="M42,12a2,2,0,0,1-2,2H8a2,2,0,0,1-2-2H6a2,2,0,0,1,2-2H40A2,2,0,0,1,42,12Z" fill="#fff"/>
      <path id="Path_3" data-name="Path 3" d="M42,24a2,2,0,0,1-2,2H8a2,2,0,0,1-2-2H6a2,2,0,0,1,2-2H40A2,2,0,0,1,42,24Z" fill="#fff"/>
      <path id="Path_4" data-name="Path 4" d="M42,36a2,2,0,0,1-2,2H8a2,2,0,0,1-2-2H6a2,2,0,0,1,2-2H40A2,2,0,0,1,42,36Z" fill="#fff"/>
    </g>
  </g>
</svg>
