<svg xmlns="http://www.w3.org/2000/svg" width="27.047" height="28" viewBox="0 0 27.047 28">
  <path id="Icon_awesome-smoking" data-name="Icon awesome-smoking" d="M26.709,19.25H24.68a.4.4,0,0,0-.338.438v7.875A.4.4,0,0,0,24.68,28h2.029a.4.4,0,0,0,.338-.437V19.688A.4.4,0,0,0,26.709,19.25ZM23.383,4.763a1.216,1.216,0,0,1-.393-.919V.438A.4.4,0,0,0,22.652,0H20.623a.4.4,0,0,0-.338.438V3.845a4,4,0,0,0,1.209,3.03,8.851,8.851,0,0,1,2.848,6.781v1.657a.4.4,0,0,0,.338.438h2.029a.4.4,0,0,0,.338-.437V13.655A11.791,11.791,0,0,0,23.383,4.763ZM18.257,19.25H2.029A2.386,2.386,0,0,0,0,21.875v3.5A2.386,2.386,0,0,0,2.029,28H18.257a.8.8,0,0,0,.676-.875v-7A.8.8,0,0,0,18.257,19.25ZM16.9,25.375H9.466v-3.5H16.9ZM20.611,7.744a5.24,5.24,0,0,1-1.678-3.9V.438A.4.4,0,0,0,18.595,0H16.566a.4.4,0,0,0-.338.438V4.069A7.876,7.876,0,0,0,18.777,9.9a5.08,5.08,0,0,1,1.509,3.752v1.657a.4.4,0,0,0,.338.438h2.029a.4.4,0,0,0,.338-.437V13.655a7.991,7.991,0,0,0-2.379-5.912ZM22.652,19.25H20.623a.4.4,0,0,0-.338.438v7.875a.4.4,0,0,0,.338.438h2.029a.4.4,0,0,0,.338-.437V19.688A.4.4,0,0,0,22.652,19.25Z" fill="#fff"/>
</svg>
