<svg xmlns="http://www.w3.org/2000/svg" width="38.297" height="37.729" viewBox="0 0 38.297 37.729">
  <g id="Icon_ionic-logo-no-smoking" data-name="Icon ionic-logo-no-smoking" transform="translate(-2.25 -2.25)">
    <path id="Path_5" data-name="Path 5" d="M25.313,18h1.125v3.375H25.313Z" transform="translate(5.161 3.488)" fill="#fff"/>
    <path id="Path_6" data-name="Path 6" d="M7.875,21.375h9.112L13.613,18H7.875Z" transform="translate(1.708 3.488)" fill="#fff"/>
    <path id="Path_7" data-name="Path 7" d="M30.674,4.616a.754.754,0,0,1-.085-.051A18.853,18.853,0,0,0,27.647,3.32l-.462-.152A19.342,19.342,0,0,0,21.4,2.25,19.009,19.009,0,0,0,2.25,21.114,18.8,18.8,0,0,0,12.115,37.6c.034.017.06.042.094.059a18.853,18.853,0,0,0,2.941,1.246l.462.152a19.3,19.3,0,0,0,5.787.918A19.009,19.009,0,0,0,40.547,21.114,18.8,18.8,0,0,0,30.674,4.616ZM21.4,35.465a14.039,14.039,0,0,1-2.325-.2,14.723,14.723,0,0,1-2.436-.615c-.162-.051-.325-.1-.479-.16a13.985,13.985,0,0,1-1.624-.724,14.318,14.318,0,0,1-7.7-12.658,14.078,14.078,0,0,1,2.8-8.371L29.9,32.711A14.623,14.623,0,0,1,21.4,35.465Zm11.78-5.979L12.9,9.509a14.61,14.61,0,0,1,8.5-2.745,14.12,14.12,0,0,1,2.325.2,14.723,14.723,0,0,1,2.436.615c.154.051.316.1.479.16a13.951,13.951,0,0,1,1.539.682,14.313,14.313,0,0,1,7.8,12.7A14.168,14.168,0,0,1,33.178,29.485Z" fill="#fff"/>
    <path id="Path_8" data-name="Path 8" d="M24.75,18H22.359l2.391,2.391Z" transform="translate(4.696 3.37)" fill="#fff"/>
    <path id="Path_9" data-name="Path 9" d="M27,18h1.125v3.375H27Z" transform="translate(5.538 3.488)" fill="#fff"/>
    <path id="Path_10" data-name="Path 10" d="M25.32,14.955a8.021,8.021,0,0,0-3.206-.4H21.86c-.893.007-1.118-.007-1.406-.429a1.735,1.735,0,0,1,.26-1.54.565.565,0,0,0,.028-.577.581.581,0,0,0-.492-.3,3.773,3.773,0,0,1-1.287-.274,1.629,1.629,0,0,1-1.1-1.624,1.772,1.772,0,0,1,1.6-1.948V6.736a2.929,2.929,0,0,0-2.728,3.073,2.761,2.761,0,0,0,1.807,2.672,4.682,4.682,0,0,0,.844.253,2.338,2.338,0,0,0,.12,2.018,2.336,2.336,0,0,0,2.341.921H22.1a6.829,6.829,0,0,1,2.735.3c.4.183.478.527.464,1.1v.07h1.125v-.07A2.072,2.072,0,0,0,25.32,14.955Z" transform="translate(4.515)" fill="#fff"/>
    <path id="Path_11" data-name="Path 11" d="M28.125,17.156a6.636,6.636,0,0,0-.64-3.488,3.092,3.092,0,0,0-2.735-1.575H23.527a4.512,4.512,0,0,0,.246-2.173c-.225-1.322-1.343-2.109-3.03-2.109V8.937c1.477,0,1.835.64,1.927,1.174a4.28,4.28,0,0,1-.485,2.271.559.559,0,0,0,.007.555.567.567,0,0,0,.485.274H24.75a1.942,1.942,0,0,1,1.765,1.027c.218.373.485.949.485,2.911h1.125Z" transform="translate(5.212 1.564)" fill="#fff"/>
  </g>
</svg>
